:FULLY-SPECIFIED
:FORCE-ALL-JOINTS-BE-3DOF
:DEGREES
49
root 8.59402 15.8609 -29.4605 6.66793 -10.1737 -3.18489
lfemur -39.6175 8.41061 -17.7854
ltibia 38.5276 0 0
lfoot -4.1176 6.72528 0
ltoes -2.04233 0 0
rfemur 16.7753 4.35236 21.2172
rtibia 19.5407 0 0
rfoot 3.38911 0.24968 0
rtoes -15.1578 0 0
lowerback -6.77526 0.60235 0.111804
upperback -2.24578 0.718657 3.49461
thorax 1.43742 0.363207 3.60142
lowerneck -21.3193 -4.24734 -12.9247
upperneck 16.9761 -4.98031 14.3885
head 9.59351 -1.60713 6.53381
lclavicle 8.51047e-15 7.15625e-15 0
lhumerus -45.1397 -3.16386 90.0628
lradius 21.1155 0 0
lwrist -4.08485 0 0
lhand 4.04619 -16.4142 0
lfingers 7.12502 0 0
lthumb 29.4598 11.2695 0
rclavicle 8.51047e-15 7.15625e-15 0
rhumerus -47.1264 19.779 -94.7034
rradius 49.2455 0 0
rwrist -25.0408 0 0
rhand -30.4695 -28.7895 0
rfingers 7.12502 0 0
rthumb -3.77081 -58.7359 0
50
root 8.62848 15.8884 -29.317 6.64038 -10.3688 -2.93806
lfemur -38.9477 8.48347 -18.2153
ltibia 38.3649 -0 0
lfoot -4.70499 6.70366 0.000554221
ltoes -2.22064 0 0
rfemur 15.3739 3.89692 20.5973
rtibia 22.3818 -0 0
rfoot 4.38052 -0.197363 -0.0193529
rtoes -14.4901 0 0
lowerback -6.66413 0.628626 -0.0356878
upperback -2.30343 0.768729 3.39043
thorax 1.3124 0.390238 3.57743
lowerneck -21.4126 -4.24528 -12.8495
upperneck 17.0778 -4.99527 14.3627
head 9.64552 -1.60825 6.51362
lclavicle 8.1274e-15 1.09994e-14 0
lhumerus -44.8655 -3.00689 89.7066
lradius 20.888 -0 0
lwrist -4.53342 0 0
lhand 3.87504 -16.5797 0.00123621
lfingers 7.12502 0 0
lthumb 29.2963 11.132 0.000980498
rclavicle 8.1274e-15 1.09994e-14 0
rhumerus -46.6383 19.2281 -94.5463
rradius 47.9039 -0 0
rwrist -24.4685 0 0
rhand -30.2686 -28.4709 0.0027927
rfingers 7.12502 0 0
rthumb -3.57684 -58.4202 0.00267238
51
root 8.66294 15.9159 -29.1736 6.61196 -10.5638 -2.69098
lfemur -38.2783 8.5613 -18.6444
ltibia 38.2023 -0 0
lfoot -5.29237 6.68204 0.000886777
ltoes -2.39894 0 0
rfemur 13.9783 3.42652 19.989
rtibia 25.2229 -0 0
rfoot 5.37205 -0.644675 -0.0309675
rtoes -13.8224 0 0
lowerback -6.55307 0.655187 -0.183129
upperback -2.36117 0.818696 3.28619
thorax 1.18738 0.417217 3.55339
lowerneck -21.5058 -4.2431 -12.7744
upperneck 17.1795 -5.01019 14.3368
head 9.69753 -1.60936 6.49343
lclavicle 7.74432e-15 1.48426e-14 0
lhumerus -44.5923 -2.84821 89.3511
lradius 20.6605 -0 0
lwrist -4.98199 0 0
lhand 3.70389 -16.7453 0.00197794
lfingers 7.12502 0 0
lthumb 29.1329 10.9946 0.0015688
rclavicle 7.74432e-15 1.48426e-14 0
rhumerus -46.1533 18.676 -94.3947
rradius 46.5622 -0 0
rwrist -23.8962 0 0
rhand -30.0678 -28.1522 0.00446837
rfingers 7.12502 0 0
rthumb -3.38286 -58.1044 0.00427586
52
root 8.6974 15.9434 -29.0301 6.58266 -10.7587 -2.44364
lfemur -37.6094 8.64408 -19.0726
ltibia 38.0396 -0 0
lfoot -5.87976 6.66041 0.000997633
ltoes -2.57725 0 0
rfemur 12.5884 2.94151 19.3927
rtibia 28.064 -0 0
rfoot 6.36365 -1.09212 -0.0348395
rtoes -13.1547 0 0
lowerback -6.44208 0.682034 -0.330519
upperback -2.41901 0.868558 3.1819
thorax 1.06234 0.444143 3.52928
lowerneck -21.5991 -4.2408 -12.6992
upperneck 17.2812 -5.02507 14.3109
head 9.74953 -1.61044 6.47323
lclavicle 7.36124e-15 1.86858e-14 0
lhumerus -44.3201 -2.68785 88.9965
lradius 20.433 -0 0
lwrist -5.43056 0 0
lhand 3.53273 -16.9108 0.00222519
lfingers 7.12502 0 0
lthumb 28.9694 10.8571 0.0017649
rclavicle 7.36124e-15 1.86858e-14 0
rhumerus -45.6715 18.1226 -94.2485
rradius 45.2206 -0 0
rwrist -23.3239 0 0
rhand -29.8669 -27.8336 0.00502693
rfingers 7.12502 0 0
rthumb -3.18888 -57.7887 0.00481036
53
root 8.73186 15.9709 -28.8866 6.55249 -10.9535 -2.19604
lfemur -36.941 8.7318 -19.5
ltibia 37.8769 -0 0
lfoot -6.46715 6.63878 0.000886777
ltoes -2.75556 0 0
rfemur 11.2042 2.44223 18.8085
rtibia 30.9051 -0 0
rfoot 7.35524 -1.53957 -0.0309675
rtoes -12.487 0 0
lowerback -6.33116 0.709167 -0.477858
upperback -2.47693 0.918314 3.07756
thorax 0.937286 0.471016 3.50512
lowerneck -21.6924 -4.23838 -12.624
upperneck 17.3829 -5.03989 14.2849
head 9.80154 -1.61151 6.45304
lclavicle 6.97817e-15 2.25289e-14 0
lhumerus -44.049 -2.52582 88.6427
lradius 20.2054 -0 0
lwrist -5.87913 0 0
lhand 3.36157 -17.0763 0.00197794
lfingers 7.12502 0 0
lthumb 28.8059 10.7196 0.0015688
rclavicle 6.97817e-15 2.25289e-14 0
rhumerus -45.1926 17.5682 -94.1077
rradius 43.879 -0 0
rwrist -22.7517 0 0
rhand -29.666 -27.515 0.00446837
rfingers 7.12502 0 0
rthumb -2.99489 -57.473 0.00427586
54
root 8.76632 15.9984 -28.7432 6.52144 -11.1481 -1.94817
lfemur -36.2731 8.82443 -19.9263
ltibia 37.7143 -0 0
lfoot -7.05453 6.61716 0.000554221
ltoes -2.93386 0 0
rfemur 9.82568 1.92903 18.2368
rtibia 33.7462 -0 0
rfoot 8.34677 -1.98688 -0.0193529
rtoes -11.8193 0 0
lowerback -6.2203 0.736585 -0.625145
upperback -2.53495 0.967965 2.97317
thorax 0.812223 0.497836 3.48089
lowerneck -21.7856 -4.23584 -12.5489
upperneck 17.4847 -5.05467 14.259
head 9.85355 -1.61256 6.43285
lclavicle 6.5951e-15 2.63721e-14 0
lhumerus -43.7789 -2.36211 88.2897
lradius 19.9779 -0 0
lwrist -6.3277 0 0
lhand 3.19042 -17.2419 0.00123621
lfingers 7.12502 0 0
lthumb 28.6425 10.5822 0.000980498
rclavicle 6.5951e-15 2.63721e-14 0
rhumerus -44.7166 17.0126 -93.9721
rradius 42.5373 -0 0
rwrist -22.1794 0 0
rhand -29.4652 -27.1963 0.0027927
rfingers 7.12502 0 0
rthumb -2.80091 -57.1572 0.00267238
55
root 8.80078 16.0259 -28.5997 6.48951 -11.3426 -1.70002
lfemur -35.6057 8.92197 -20.3517
ltibia 37.5516 0 0
lfoot -7.64192 6.59554 0
ltoes -3.11217 0 0
rfemur 8.45266 1.40226 17.6778
rtibia 36.5873 0 0
rfoot 9.33818 -2.43392 0
rtoes -11.1516 0 0
lowerback -6.10952 0.764287 -0.77238
upperback -2.59306 1.01751 2.86873
thorax 0.687148 0.524604 3.45661
lowerneck -21.8789 -4.23317 -12.4737
upperneck 17.5864 -5.06941 14.233
head 9.90556 -1.61359 6.41265
lclavicle 6.21202e-15 3.02153e-14 0
lhumerus -43.5098 -2.19675 87.9375
lradius 19.7504 0 0
lwrist -6.77627 0 0
lhand 3.01927 -17.4074 0
lfingers 7.12502 0 0
lthumb 28.479 10.4447 0
rclavicle 6.21202e-15 3.02153e-14 0
rhumerus -44.2434 16.456 -93.8417
rradius 41.1957 0 0
rwrist -21.6071 0 0
rhand -29.2643 -26.8777 0
rfingers 7.12502 0 0
rthumb -2.60694 -56.8415 0
56
root 8.83343 16.0547 -28.4688 6.3423 -11.4693 -1.40253
lfemur -34.6956 8.81911 -20.7808
ltibia 37.07 -0 0
lfoot -7.98787 6.68141 -0.0012963
ltoes -3.17356 0 0
rfemur 7.14383 1.16504 17.2933
rtibia 38.9458 -0 0
rfoot 9.68569 -3.52029 -0.0164862
rtoes -9.78427 0 0
lowerback -5.95514 0.761061 -0.968382
upperback -2.56287 1.02538 2.81571
thorax 0.628972 0.530081 3.51035
lowerneck -21.9542 -4.23425 -12.4215
upperneck 17.6032 -5.04433 14.0787
head 9.91454 -1.61263 6.35044
lclavicle 8.4939e-15 2.19989e-14 0
lhumerus -43.1241 -2.53884 88.0523
lradius 19.8603 -0 0
lwrist -6.39332 0 0
lhand 3.05645 -17.3653 6.83793e-05
lfingers 7.12502 0 0
lthumb 28.5145 10.4809 5.60736e-05
rclavicle 8.4939e-15 2.19989e-14 0
rhumerus -44.1175 16.0673 -93.4801
rradius 40.7284 -0 0
rwrist -21.2733 0 0
rhand -29.3087 -26.6821 -0.00037929
rfingers 7.12502 0 0
rthumb -2.64986 -56.6453 -0.000367373
57
root 8.86609 16.0835 -28.3378 6.19435 -11.5953 -1.10457
lfemur -33.7849 8.72301 -21.2115
ltibia 36.5884 -0 0
lfoot -8.33382 6.76729 -0.0020741
ltoes -3.23495 0 0
rfemur 5.83672 0.919098 16.9143
rtibia 41.3044 -0 0
rfoot 10.0335 -4.60673 -0.0263806
rtoes -8.41693 0 0
lowerback -5.80075 0.758364 -1.16439
upperback -2.53268 1.03328 2.76269
thorax 0.570801 0.535613 3.56409
lowerneck -22.0294 -4.23526 -12.3693
upperneck 17.6199 -5.01921 13.9245
head 9.92351 -1.61166 6.28823
lclavicle 1.07758e-14 1.37824e-14 0
lhumerus -42.739 -2.8817 88.1649
lradius 19.9702 -0 0
lwrist -6.01037 0 0
lhand 3.09363 -17.3231 0.000109407
lfingers 7.12502 0 0
lthumb 28.55 10.5171 8.97177e-05
rclavicle 1.07758e-14 1.37824e-14 0
rhumerus -43.9944 15.6779 -93.12
rradius 40.2612 -0 0
rwrist -20.9395 0 0
rhand -29.3532 -26.4864 -0.000606866
rfingers 7.12502 0 0
rthumb -2.69277 -56.4491 -0.000587799
58
root 8.89875 16.1123 -28.2069 6.04567 -11.7205 -0.806149
lfemur -32.8738 8.63368 -21.6435
ltibia 36.1068 -0 0
lfoot -8.67977 6.85317 -0.00233336
ltoes -3.29634 0 0
rfemur 4.53135 0.664586 16.541
rtibia 43.6629 -0 0
rfoot 10.3813 -5.69322 -0.0296792
rtoes -7.0496 0 0
lowerback -5.64636 0.756195 -1.36041
upperback -2.50251 1.04121 2.70968
thorax 0.512636 0.541199 3.61782
lowerneck -22.1047 -4.2362 -12.3171
upperneck 17.6366 -4.99404 13.7702
head 9.93248 -1.61068 6.22601
lclavicle 1.30577e-14 5.566e-15 0
lhumerus -42.3544 -3.22531 88.2751
lradius 20.08 -0 0
lwrist -5.62742 0 0
lhand 3.13081 -17.2809 0.000123083
lfingers 7.12502 0 0
lthumb 28.5856 10.5533 0.000100932
rclavicle 1.30577e-14 5.566e-15 0
rhumerus -43.8741 15.2877 -92.7615
rradius 39.7939 -0 0
rwrist -20.6056 0 0
rhand -29.3976 -26.2908 -0.000682725
rfingers 7.12502 0 0
rthumb -2.73569 -56.253 -0.000661275
59
root 8.9314 16.1411 -28.076 5.89625 -11.845 -0.507259
lfemur -31.9622 8.55115 -22.0768
ltibia 35.6252 -0 0
lfoot -9.02572 6.93904 -0.0020741
ltoes -3.35774 0 0
rfemur 3.22772 0.401644 16.1737
rtibia 46.0214 -0 0
rfoot 10.7292 -6.77971 -0.0263806
rtoes -5.68227 0 0
lowerback -5.49196 0.754554 -1.55643
upperback -2.47234 1.04917 2.65667
thorax 0.454475 0.54684 3.67155
lowerneck -22.18 -4.23707 -12.2648
upperneck 17.6531 -4.96883 13.616
head 9.94146 -1.6097 6.1638
lclavicle 1.53395e-14 -2.65043e-15 0
lhumerus -41.9704 -3.56964 88.3831
lradius 20.1899 -0 0
lwrist -5.24447 0 0
lhand 3.16799 -17.2388 0.000109407
lfingers 7.12502 0 0
lthumb 28.6211 10.5894 8.97177e-05
rclavicle 1.53395e-14 -2.65043e-15 0
rhumerus -43.7566 14.8968 -92.4045
rradius 39.3266 -0 0
rwrist -20.2718 0 0
rhand -29.442 -26.0952 -0.000606866
rfingers 7.12502 0 0
rthumb -2.77861 -56.0568 -0.000587799
60
root 8.96406 16.1699 -27.945 5.74611 -11.9687 -0.207903
lfemur -31.0502 8.47546 -22.5112
ltibia 35.1436 -0 0
lfoot -9.37167 7.02492 -0.0012963
ltoes -3.41913 0 0
rfemur 1.92583 0.130418 15.8124
rtibia 48.38 -0 0
rfoot 11.077 -7.86615 -0.0164862
rtoes -4.31493 0 0
lowerback -5.33755 0.753441 -1.75245
upperback -2.44218 1.05715 2.60366
thorax 0.39632 0.552535 3.72527
lowerneck -22.2552 -4.23787 -12.2126
upperneck 17.6697 -4.94357 13.4618
head 9.95043 -1.6087 6.10159
lclavicle 1.76214e-14 -1.08669e-14 0
lhumerus -41.5869 -3.91469 88.4889
lradius 20.2998 -0 0
lwrist -4.86152 0 0
lhand 3.20517 -17.1966 6.83793e-05
lfingers 7.12502 0 0
lthumb 28.6566 10.6256 5.60736e-05
rclavicle 1.76214e-14 -1.08669e-14 0
rhumerus -43.6417 14.5053 -92.0489
rradius 38.8594 -0 0
rwrist -19.938 0 0
rhand -29.4865 -25.8995 -0.00037929
rfingers 7.12502 0 0
rthumb -2.82152 -55.8606 -0.000367373
